<svg width="64" height="64" viewBox="0 0 64 64" fill="none" xmlns="http://www.w3.org/2000/svg">
<circle cx="32" cy="32" r="32" fill="white"/>
<path d="M34.032 40.144C32.368 40.144 30.864 39.776 29.52 39.04C28.192 38.304 27.144 37.288 26.376 35.992C25.624 34.68 25.248 33.216 25.248 31.6C25.248 29.984 25.624 28.528 26.376 27.232C27.144 25.92 28.2 24.896 29.544 24.16C30.888 23.424 32.392 23.056 34.056 23.056C35.304 23.056 36.456 23.264 37.512 23.68C38.568 24.096 39.464 24.704 40.2 25.504L39.072 26.632C37.76 25.304 36.104 24.64 34.104 24.64C32.776 24.64 31.568 24.944 30.48 25.552C29.392 26.16 28.536 26.992 27.912 28.048C27.304 29.104 27 30.288 27 31.6C27 32.912 27.304 34.096 27.912 35.152C28.536 36.208 29.392 37.04 30.48 37.648C31.568 38.256 32.776 38.56 34.104 38.56C36.12 38.56 37.776 37.888 39.072 36.544L40.2 37.672C39.464 38.472 38.56 39.088 37.488 39.52C36.432 39.936 35.28 40.144 34.032 40.144Z" fill="black"/>
</svg>
